<?xml version="1.0" standalone="no"?>
<!DOCTYPE svg PUBLIC "-//W3C//DTD SVG 1.0//EN" "http://www.w3.org/TR/2001/REC-SVG-20010904/DTD/svg10.dtd">
<svg xmlns="http://www.w3.org/2000/svg" xmlns:xlink="http://www.w3.org/1999/xlink" id="body_1" width="1596" height="1276">

<defs>
    <linearGradient transform="matrix(1 0 0 1 0 0)"  id="1" x1="-1.8739756E-16" y1="0.5" x2="0.19927536" y2="0.4784946">
        <stop stop-color="#CBCFD5" offset="0%"/>
        <stop stop-color="#57677B" offset="100%"/>
    </linearGradient>
</defs>

<g transform="matrix(0.5100671 0 0 0.5101959 0 0)">
	<g transform="matrix(0.50994134 0 0 0.5099918 0 0)">
		<g transform="matrix(2.29985 0 0 2.3001876 0 0)">
			<g transform="matrix(7.2896175 0 0 7.2896175 -0 16.29508)">
				<g transform="matrix(1 0 0 1 -0.386948 28.31685)">
                    <path d="M22.030407 147.96252C 18.024878 153.30322 15.715162 160.69624 16.022116 166.98878C 16.38275 174.38179 17.87979 184.75916 24.033173 189.0192C 50.424706 207.29025 82.77388 227.0523 113.65687 234.58208C 130.00574 238.5682 151.0407 232.7917 165.72874 223.56688C 205.78291 198.4109 241.37341 163.10667 277.88354 131.43971C 290.44113 120.54794 300.0896 106.24117 312.93192 95.89065C 322.4538 88.21629 334.29474 83.54027 344.97614 77.36508C 347.3127 73.860245 349.29547 70.63237 349.98306 66.85057C 350.63065 63.288902 349.98306 58.171925 346.9789 55.835365C 306.75674 40.48084 268.53732 24.625622 228.31512 9.271094C 210.95784 6.767639 205.61714 25.7939 176.24326 22.789755C 159.88734 37.810486 143.53143 52.83122 127.17553 67.85195C 92.12716 94.55547 57.07878 121.259 22.030407 147.96252z" stroke="none" fill="url(#1)" />
                    <path d="M347 55C 317.257 38.0949 282.128 27.7563 250 16.2907C 237.411 11.7982 221.64 3.45901 208 6.82727C 176.504 14.6049 154.429 40.6483 132 61.9219C 121.248 72.1204 108.948 80.9712 97 89.7063C 76.2406 104.883 55.6688 120.336 35 135.636C 25.8844 142.384 15.7434 149.235 18.4118 162C 20.4045 171.532 29.2189 175.225 37 179.277C 53.6649 187.954 69.9326 197.453 87 205.335C 97.073 209.986 106.731 215.672 118 216.774C 149.897 219.896 177.379 194.018 200 175.622C 219.721 159.583 241.268 144.863 259.864 127.543C 271.547 116.662 280.534 103.142 292.019 92.0805C 302.844 81.6536 317.159 74.7944 330 67.2031C 335.88 63.7268 343.317 60.9609 347 55z" stroke="none" fill="#9AAFD1" fill-rule="nonzero" />
                    <path d="M119 193C 129.07626 199.46606 141.59557 197.0688 146.24757 193.74828C 147.36058 189.49127 142.333 185.994 138.999 184.214C 130.717 179.79 121.524 184.014 119 193z" stroke="none" fill="#79A063" fill-rule="nonzero" />
                    <path d="M129 185C 130.18015 187.8468 130.29816 188.03831 128.29192 191.41617C 132.51347 190.059 132.66354 190.29504 136.70808 191.06213C 135.46893 188.31264 135.11488 188.21844 136.70808 184.93787C 132.72256 186.19772 132.27744 185.68736 129 185z" stroke="none" fill="#A9BB91" fill-rule="nonzero" />
                    <path d="M77 125C 83.7256 133.901 100.233 135.837 105 124L105 124L91 128.708L77 125z" stroke="none" fill="#698759" fill-rule="nonzero" />
                    <path d="M164.20345 91.7544C 170.06583 94.15989 173.0131 95.84931 177.9531 95.85881C 181.1911 95.86501 189.9935 92.43553 186.01344 86.51971C 180.12445 78.015305 165.97345 83.110306 164.20345 91.7544z" stroke="none" fill="#7AA067" fill-rule="nonzero" />
                    <path d="M112.33545 165.27881C 123.5702 171.812 129.7813 171.41675 137.40532 164.62944C 140.06425 162.26231 133.30882 156.279 129.6858 155.26907C 121.05587 152.86343 114.2567 156.14493 112.33545 165.27881z" stroke="none" fill="#79A063" fill-rule="nonzero" />
                    <path d="M137 162C 129.528 174.089 122.387 167.509 112 165C 117.597 176.869 137.126 174.634 140 162L140 162L137 162z" stroke="none" fill="#5D7257" fill-rule="nonzero" />
                    <path d="M104.7697 137.3026C 116.00445 143.83578 122.21554 143.44054 129.83957 136.65323C 132.4985 134.2861 125.74307 128.3028 122.12006 127.29287C 113.49012 124.88723 106.69095 128.16872 104.7697 137.3026z" stroke="none" fill="#79A063" fill-rule="nonzero" />
                    <path d="M99.13164 112.62178C 110.36638 119.15497 114.09918 118.05164 121.72321 111.26433C 124.38215 108.8972 120.105 103.62198 116.48199 102.61205C 107.85205 100.20641 101.05288 103.4879 99.13164 112.62178z" stroke="none" fill="#79A063" fill-rule="nonzero" />
                    <path d="M124.31114 123.50865C 135.54588 130.04184 147.06763 126.81426 150.79718 121.44312C 152.82762 118.51898 147.05472 115.92502 143.43172 114.91509C 134.80177 112.50945 126.23239 114.37477 124.31114 123.50865z" stroke="none" fill="#79A063" fill-rule="nonzero" />
                    <path d="M151.34846 134.02316C 162.58322 140.55637 175.10632 136.3274 176.83313 132.208C 178.2094 128.92482 174.09206 126.43954 170.46904 125.42961C 161.8391 123.02397 153.26971 124.88929 151.34846 134.02316z" stroke="none" fill="#79A063" fill-rule="nonzero" />
                    <path d="M132.2893 149.59413C 143.52405 156.12732 156.04716 151.89836 157.77396 147.77895C 159.15022 144.49577 155.03288 142.0105 151.40987 141.00056C 142.77992 138.59492 134.21056 140.46025 132.2893 149.59413z" stroke="none" fill="#79A063" fill-rule="nonzero" />
                    <path d="M138.7983 176.63144C 151.28474 188.42188 161.6143 179.18964 166.03535 175.5673C 166.863 171.24574 161.61412 168.09032 158.1692 166.53581C 149.61151 162.67197 140.71954 167.49756 138.7983 176.63144z" stroke="none" fill="#79A063" fill-rule="nonzero" />
                    <path d="M91.51788 181.1014C 102.00159 186.88354 114.3339 183.6596 118.75496 180.03726C 119.5826 175.7157 114.33372 172.56027 110.8888 171.00577C 102.33111 167.14194 93.43914 171.96751 91.51788 181.1014z" stroke="none" fill="#79A063" fill-rule="nonzero" />
                    <path d="M174 59C 177.854 68.4309 186.303 59.7079 191 55.5611C 196.308 50.8745 204.679 39.4599 212 38.5626C 217.362 37.9054 225.041 42.4635 230 44.3143C 243.648 49.4079 257.255 54.654 271 59.4807C 277.631 61.8091 283.848 65.2492 291 64C 288.645 58.7776 279.152 56.1711 274 54.0367C 258.889 47.7759 243.153 42.7964 227.96 36.6024C 223.04 34.5967 214.345 29.6623 209 31.0651C 197.09 34.1912 184.084 51.661 174 59z" stroke="none" fill="#6B6B6B" fill-rule="nonzero" />
                    <path d="M180 65L180 64L174 59C 185.529 52.9689 199.127 41.3401 207 31C 196.736 36.3696 186.617 46.2964 178.07 54.147C 173.046 58.7616 172.231 63.9577 180 65z" stroke="none" fill="#7C8491" fill-rule="nonzero" />
                    <path d="M181 65L236 88.9148L256 95.8619L267 87.0184L288 66C 270.445 57.0372 250.464 51.5767 232 44.6857C 226.553 42.6528 216.829 36.8283 211 38.1361C 201.463 40.276 186.734 57.3545 181 65z" stroke="none" fill="#D6D6D6" fill-rule="nonzero" />
                    <path d="M137.25172 81.24896C 142.11273 79.89926 146.31174 83.09076 151.25172 83.100266C 154.48973 83.10646 164.54384 81.93009 161.31483 77.26599C 155.42584 68.76159 139.02173 72.604866 137.25172 81.24896z" stroke="none" fill="#7AA067" fill-rule="nonzero" />
                    <path d="M146.00276 75C 147.30876 80.5203 150.13075 80.1328 155.00276 79C 152.61876 75.5147 150.10075 75.1389 146.00276 75z" stroke="none" fill="#9EB587" fill-rule="nonzero" />
                    <path d="M137 80C 141.241 89.3556 157.977 89.535 162 80C 151.244 83.0136 147.812 82.8666 137 80z" stroke="none" fill="#61745F" fill-rule="nonzero" />
                    <path d="M164.50208 90.74689L165.75243 91.748276C 167.88841 81.664375 174.10815 82.35542 183.50484 83.748276C 174.89784 77.67037 164.66006 80.42349 164.50208 90.74689z" stroke="none" fill="#9D9D9D" fill-rule="nonzero" fill-opacity="0.7647059" />
                    <path d="M171 84L171 93C 178.017 91.77 176.966 86.2778 171 84z" stroke="none" fill="#B9C4A1" fill-rule="nonzero" />
                    <path d="M117 98C 127.79092 102.85634 133.92 103.799 144 95C 136.865 87.1343 120.24 85.1216 117 98z" stroke="none" fill="#79A063" fill-rule="nonzero" />
                    <path d="M128 91C 126.68 95.7215 126.673 98.2532 132 99L132 99L135 96L128 91z" stroke="none" fill="#B5C29D" fill-rule="nonzero" />
                    <path d="M164 91C 168.283 100.595 182.775 100.131 187 91C 176.499 94.8237 174.818 93.8843 164 91z" stroke="none" fill="#5B6E53" fill-rule="nonzero" />
                    <path d="M191.387 99.126076C 197.40028 95.19459 202.10968 94.62169 209.1131 95.84195C 203.21527 91.55603 194.51791 91.865845 191.387 99.126076z" stroke="none" fill="#A0A0A0" fill-rule="nonzero" fill-opacity="0.7647059" />
                    <path d="M117 98C 123.753 107.436 140.529 105.694 146 96L146 96L145 95L130 101.331L117 98z" stroke="none" fill="#5D7354" fill-rule="nonzero" />
                    <path d="M190 102C 192.337 103.342 194.539 105.276 197.081 106.207C 201.091 107.675 214.445 106.659 210.633 99.3723C 206.187 90.8755 193.112 95.2459 190 102z" stroke="none" fill="#7AA066" fill-rule="nonzero" />
                    <path d="M195 101L205 102C 203.382 97.0759 196.861 95.4115 195 101z" stroke="none" fill="#B8C4A0" fill-rule="nonzero" />
                    <path d="M98 114L99 114C 100.157 109.316 104.74 99.9686 110 106L110 106L111 106L115 102C 105.8 98.9325 98.3204 104.679 98 114z" stroke="none" fill="#85A58B" fill-rule="nonzero" />
                    <path d="M145 105C 142.30608 115.85983 159.68471 111.06246 170 110C 170.514 97.7132 152.91121 100.50092 145 105z" stroke="none" fill="#79A063" fill-rule="nonzero" />
                    <path d="M212 101C 205.724 110.686 198.069 105.163 190 102C 192.634 112.728 212.632 111.464 215 101L215 101L212 101z" stroke="none" fill="#5E725A" fill-rule="nonzero" />
                    <path d="M111 103C 113.60255 109.20709 104.52171 109.04142 105 111L105 111L116 108L111 103z" stroke="none" fill="#B8C4A0" fill-rule="nonzero" />
                    <path d="M152 105L152 107L160 107L160 103L152 105z" stroke="none" fill="#C5CBAD" fill-rule="nonzero" />
                    <path d="M217.58383 115.06213C 227.40582 120.55813 232.289 116.095 241 111L241 111L241 110L238.41617 109.29192C 231.40771 101.78875 221.27696 106.76796 217.58383 115.06213z" stroke="none" fill="#769A67" fill-rule="nonzero" />
                    <path d="M144 108C 147.948 117.402 165.255 115.777 170 108C 159.162 110.142 155.019 111.373 144 108z" stroke="none" fill="#5D7158" fill-rule="nonzero" />
                    <path d="M110 118C 116.183 117.545 122.354 115.546 124 109L124 109L110 118z" stroke="none" fill="#596D4F" fill-rule="nonzero" />
                    <path d="M224 110C 225.604 116.226 230.175 113.774 232 109L232 109L224 110z" stroke="none" fill="#BAC5A4" fill-rule="nonzero" />
                    <path d="M238 111C 231.655 120.552 225.67 114.474 217 115L217 115L217 117C 225.35 120.676 238.337 122.476 241 111L241 111L238 111z" stroke="none" fill="#5D7256" fill-rule="nonzero" />
                    <path d="M99 112C 100.259 116.307 104.944 116.714 109 117L109 117L99 112z" stroke="none" fill="#5C7151" fill-rule="nonzero" />
                    <path d="M171 118L171 119L186 122.756L198 121C 199.117 118.026 194.489 113.77479 191.94 112.56279C 181.80083 109.83396 177.86296 113.088 171 118z" stroke="none" fill="#79A064" fill-rule="nonzero" />
                    <path d="M134.50623 118.75242C 130.88069 118.82712 131.279 121.53175 132.7585 122.55125C 134.238 123.57075 136.298 123.9065 139 124C 139.83333 123.33333 140.41632 121.91563 140.24828 120.74827C 141.33195 121.08298 143.16667 120.66667 144 120C 143.0195 116.2765 140.9015 115.1375 138.33763 115.12387C 135.77374 115.11025 132.2633 117.22338 134.50623 118.75242z" stroke="none" fill="#B8C4A0" fill-rule="nonzero" />
                    <path d="M135.14867 119.88553L134.4526 121.17332L137.22728 122.46556L137.92336 121.17777L135.14867 119.88553z" stroke="none" fill="#91AD7A" fill-rule="nonzero" />
                    <path d="M181 116L181 118C 184.386 118.613 185.711 118.26 187 115L187 115L181 116z" stroke="none" fill="#A5B991" fill-rule="nonzero" />
                    <path d="M78 125C 89.7359 131.6514 93.4799 130.48021 105 124C 96.2403 115.78 83.67153 113.16108 78 125z" stroke="none" fill="#789F64" fill-rule="nonzero" />
                    <path d="M137.41412 116.45811L136.76945 117.87125L139.3452 119.28601L139.98987 117.87288L137.41412 116.45811z" stroke="none" fill="#91AD7A" fill-rule="nonzero" />
                    <path d="M171 119C 175.571 129.003 193.59 129.203 198 119C 186.845 122.288 182.272 120.94 171 119z" stroke="none" fill="#5E7356" fill-rule="nonzero" />
                    <path d="M199 131L215 134.375L225 131C 225.323 123.154 210.677 117.843 204.265 120.823C 200.583 122.534 199.98 127.509 199 131z" stroke="none" fill="#7AA068" fill-rule="nonzero" />
                    <path d="M124 123C 127.254 134.172 149.379 132.095 152 121L152 121L138.999 127.199L124 123z" stroke="none" fill="#5D7156" fill-rule="nonzero" />
                    <path d="M87.74966 118.74827L91.7538 123.24619L89.744125 126.25034L97.74966 120.74827L87.74966 118.74827z" stroke="none" fill="#C4CBAC" fill-rule="nonzero" />
                    <path d="M93.28849 121.13903L91.04291 120.21403L90.79141 120.43405L92.58071 122.33611L93.884926 121.77305L93.28849 121.13903z" stroke="none" fill="#9FB588" fill-rule="nonzero" />
                    <path d="M150 133L151 133C 158.507 122.28 165.222 124.009 176 129C 168.172 119.507 154.27 121.334 150 133z" stroke="none" fill="#A5A5A5" fill-rule="nonzero" fill-opacity="0.7647059" />
                    <path d="M216 130L214 123C 205.852 124.134 209.948 129.421 216 130z" stroke="none" fill="#BDC7A5" fill-rule="nonzero" />
                    <path d="M76 124L76 128C 69.4819 128.027 63.5903 128.153 61 135L61 135L62 135C 68.9009 127.267 79.4748 130.283 84 139L84 139L85 139L84 133L93 134L93 133C 87.5534 131.951 80.1569 129.48 78 124L78 124L76 124z" stroke="none" fill="#B4B4B4" fill-rule="nonzero" fill-opacity="0.7647059" />
                    <path d="M164.70116 130.9623C 163.57803 132.55202 161.7654 133.25966 159.2633 133.08524C 161.96848 135.09167 163.01985 134.52524 164.54584 133.71217C 178.06445 126.88992 160.82268 120.64248 164.70116 130.9623z" stroke="none" fill="#B8C4A0" fill-rule="nonzero" />
                    <path d="M114 126L129 132C 124.882 127.588 119.916 126.265 114 126z" stroke="none" fill="#97B09A" fill-rule="nonzero" />
                    <path d="M115.48014 135.41617L110.22979 134.41617C 111.97479 139.37917 119.07631 138.41913 119.72971 134.59035C 119.73921 133.15274 115.24804 128.818 121.5598 131.47871C 124.07535 132.53912 120.11959 127.34058 116.87108 129.25912C 115.00016 130.36407 114.3706 132.71382 115.48014 135.41617z" stroke="none" fill="#B9C4A1" fill-rule="nonzero" />
                    <path d="M198 131C 203.995 140.443 221.012 139.885 225 129C 213.887 133.812 209.894 133.545 198 131z" stroke="none" fill="#5C7055" fill-rule="nonzero" />
                    <path d="M60 143C 60 142.209 59.4343 140.8 61 141.333C 71.94995 146.64807 72.93086 146.45442 84 139C 81.4477 132.204 73.2148 127.959 66.0812 130.94C 61.9484 132.667 56.8816 138.775 60 143z" stroke="none" fill="#79A064" fill-rule="nonzero" />
                    <path d="M177 130C 167.235 140.456 161.508 135.131 150 133C 156.442 143.835 175.9 143.52 179 130L179 130L177 130z" stroke="none" fill="#5D7155" fill-rule="nonzero" />
                    <path d="M68 140L76 133C 71.7219 134.136 69.5592 135.827 68 140z" stroke="none" fill="#C0C8A8" fill-rule="nonzero" />
                    <path d="M129 135C 121.621 143.948 113.425 139.958 104 137C 108.705 147.902 128.86 146.231 132 135L132 135L129 135z" stroke="none" fill="#607659" fill-rule="nonzero" />
                    <path d="M179 147.20882C 182.8504 148.08688 186.56512 149.60887 190.58684 149.8774C 192.83682 150.027 195.165 149.93408 197.3943 149.65068C 219.23201 146.87431 195.13281 127.14614 181.87544 140.7585C 179.92091 142.76736 179.3932 144.7558 179 147.20882z" stroke="none" fill="#79A063" fill-rule="nonzero" />
                    <path d="M59 141C 65.9929 150.948 79.3197 149.242 85 139L85 139L71.9814 144.491L59 141z" stroke="none" fill="#5E7357" fill-rule="nonzero" />
                    <path d="M187 139L187 146L195 146C 193.462 141.921 191.256 139.962 187 139z" stroke="none" fill="#D0D2B8" fill-rule="nonzero" />
                    <path d="M192 141L192 142L195 145L196 145L196 140L192 141z" stroke="none" fill="#A3B792" fill-rule="nonzero" />
                    <path d="M84.00138 153.24896L99.77242 157.08034L114.25173 151.25034C 104.54025 138.52434 90.53455 138.20796 84.00138 153.24896z" stroke="none" fill="#79A063" fill-rule="nonzero" />
                    <path d="M144 150C 146.17012 148.50069 145.58644 146.25035 143 144L143 144L148 144L148 142C 140.761 142.111 132.968 149.202 144 150z" stroke="none" fill="#C8CDAF" fill-rule="nonzero" />
                    <path d="M180.47829 141.64597L178 150C 167.948 150 159.16 151.446 157 163C 148.812 163.112 140.943 166.305 139 175L139 175L140 175C 147.408 161.5 157.675 167.978 168 174L168 174L166 168C 159.215 163.63 159.646 154.457 168.227 151.712C 174.349 149.753 182.706 154.051 186 159L186 159L187 159L186 154L197 154L197 153C 186.513 152.995 184.23029 151.69395 180.47829 141.64597z" stroke="none" fill="#B4B4B4" fill-rule="nonzero" fill-opacity="0.7647059" />
                    <path d="M37 156L51.9596 159.699L65 156C 66.122 151.714 57.9513 144.737 53.9645 144.153C 45.7623 142.95 38.9845 148.685 37 156z" stroke="none" fill="#79A063" fill-rule="nonzero" />
                    <path d="M50.1217 147.111C 44.7976 149.263 47.5867 155.238 52.7235 152.908C 57.2343 150.862 54.7263 145.251 50.1217 147.111z" stroke="none" fill="#ABBC93" fill-rule="nonzero" />
                    <path d="M179 147C 183.851 156.972 201.769 154.201 207 146C 195.625 147.962 190.45 149.221 179 147z" stroke="none" fill="#5A6E53" fill-rule="nonzero" />
                    <path d="M132 149C 137.274 160.823 154.666 157.691 159 147L159 147L146.016 153.163L132 149z" stroke="none" fill="#5E7356" fill-rule="nonzero" />
                    <path d="M84 153C 90.8627 163.138 108.886 162.819 114 151L114 151L99 156.676L84 153z" stroke="none" fill="#5D7156" fill-rule="nonzero" />
                    <path d="M160 162L174 165.441L187 162C 187.916 154.061 174.451 149.929 168.227 151.434C 163.275 152.631 161.158 157.557 160 162z" stroke="none" fill="#79A065" fill-rule="nonzero" />
                    <path d="M168 158L172 161L173 161L174 153L168 158z" stroke="none" fill="#D5D4BD" fill-rule="nonzero" />
                    <path d="M37 156C 43.669 166.73 58.9513 163.62 65 154L65 154L51.9596 159.502L37 156z" stroke="none" fill="#5E7258" fill-rule="nonzero" />
                    <path d="M126.50208 156.25172C 128.92117 158.83678 130.59196 162.83678 125.7538 161C 129.09406 167.17564 120.41771 161.8354 118.75104 161.50208C 120.58004 165.60806 123.46604 166.24207 127.75104 166.50208C 128.91748 163.83356 128.83218 163.16782 132.00139 161.50069C 131.42001 158.8331 130.33795 157.41724 126.50208 156.25172z" stroke="none" fill="#C2C9A9" fill-rule="nonzero" />
                    <path d="M174 155L173 161L172 161L172 158L171 158L171 162L177 158L177 156L174 155z" stroke="none" fill="#B2C09C" fill-rule="nonzero" />
                    <path d="M64 169.25343C 68.27788 170.05534 72.51796 170.99306 76.83072 171.67937C 101.80173 175.65315 87.900826 147.87234 68.97494 162.37659C 66.38348 164.3621 65.161064 166.62473 64 169.25343z" stroke="none" fill="#79A063" fill-rule="nonzero" />
                    <path d="M159 162C 164.926 172.002 182.729 171.162 187 160C 174.738 163.784 171.642 164.723 159 162z" stroke="none" fill="#5A6E50" fill-rule="nonzero" />
                    <path d="M74 164L75 167L77 167L78 164L74 164z" stroke="none" fill="#C6CCAD" fill-rule="nonzero" />
                    <path d="M64 169C 70.18258 178.418 86.60286 176.459 90.748276 166L90.748276 166L79.26696 171.742L64 169z" stroke="none" fill="#5D7057" fill-rule="nonzero" />
                    <path d="M118 193C 123.424 201.983 143.68 204.059 148 193C 135.751 198.166 130.2 195.411 118 193z" stroke="none" fill="#60745C" fill-rule="nonzero" />
                    <path d="M99 174L107 180L110 177L110 174L99 174z" stroke="none" fill="#ADBE96" fill-rule="nonzero" />
                    <path d="M165 174C 160.685 179.287 155.689 181.304 149 182L149 182L149 184C 157.047 183.987 165.899 183.208 168 174L168 174L165 174z" stroke="none" fill="#596D50" fill-rule="nonzero" />
                    <path d="M138 176C 139.908 180.597 143.258 181.596 148 182L148 182L138 176z" stroke="none" fill="#586C4F" fill-rule="nonzero" />
                    <path d="M91 181C 95.8427 191.905 115.201 187.592 120 179L120 179L106 184.746L91 181z" stroke="none" fill="#60735E" fill-rule="nonzero" />
                    <path d="M207 31L213 31L207 31z" stroke="none" fill="#8793A7" fill-rule="nonzero" />
                    <path d="M149 171C 151.33333 173.66805 153.66667 175.08437 156 176C 153.917 173.83264 152.58505 172.917 149 171z" stroke="none" fill="#CDCFB4" fill-rule="nonzero" />
                    <path d="M100.81393 146.4611C 101.91407 145.08658 98.67532 144.27281 97.98751 143.18245C 104.61174 142.57426 104.71059 149.11958 99.62404 149.69978C 96.16472 149.7928 91.22448 148.35194 97.739914 154.73866C 99.29505 156.26309 90.51018 152.68182 92.36195 149.6713C 94.22912 146.63574 99.67737 147.8811 100.81393 146.4611z" stroke="none" fill="#B9C4A1" fill-rule="nonzero" />
                    <path d="M135.27596 190.51192C 134.36823 188.30748 134.2791 188.15982 135.67645 185.48795C 132.63408 186.6178 132.52089 186.43588 129.56943 185.90337C 130.5183 188.03082 130.77713 188.09856 129.67807 190.6876C 132.55072 189.63766 132.8831 190.029 135.27596 190.51192z" stroke="none" fill="#CBCFB4" fill-rule="nonzero" />
                    <path d="M166.96257 126.89851L165.75725 127.53763L166.62657 129.88153L167.8319 129.24242L166.96257 126.89851z" stroke="none" fill="#91AD7A" fill-rule="nonzero" />
                    <path d="M142.36427 145.21928L141.15895 145.85841L142.02827 148.20232L143.2336 147.56319L142.36427 145.21928z" stroke="none" fill="#91AD7A" fill-rule="nonzero" />
				</g>
			</g>
		</g>
	</g>
</g>
</svg>